<svg width="495" height="256" viewBox="0 0 495 256" fill="none" xmlns="http://www.w3.org/2000/svg">
<path d="M17.6574 60.6651C17.3579 61.0245 17.1939 61.4776 17.1939 61.9454V211.718C17.1939 213.375 18.537 214.718 20.1939 214.718H184.746C186.403 214.718 187.746 213.375 187.746 211.718V61.9454C187.746 61.4776 187.582 61.0245 187.282 60.6651L159.92 27.8305C159.54 27.3746 158.977 27.1109 158.384 27.1109H46.556C45.9624 27.1109 45.3995 27.3746 45.0195 27.8305L17.6574 60.6651Z" stroke="#14142B" stroke-width="2"/>
<path d="M17.1939 65.4851H187.746" stroke="#14142B" stroke-width="2"/>
<path d="M136.58 103.859C136.58 122.698 121.309 137.97 102.47 137.97C83.6313 137.97 68.3595 122.698 68.3595 103.859" stroke="#14142B" stroke-width="2" stroke-linecap="round"/>
<path d="M285.925 105.072L269.989 150H256.293L240.357 105.072H252.005L263.141 138.992L274.341 105.072H285.925ZM301.443 141.552H315.779V150H290.499V105.072H301.443V141.552ZM337.255 150.512C333.757 150.512 330.599 149.765 327.783 148.272C325.01 146.779 322.813 144.645 321.191 141.872C319.613 139.099 318.823 135.856 318.823 132.144C318.823 128.475 319.634 125.253 321.255 122.48C322.877 119.664 325.095 117.509 327.911 116.016C330.727 114.523 333.885 113.776 337.383 113.776C340.882 113.776 344.039 114.523 346.855 116.016C349.671 117.509 351.89 119.664 353.511 122.48C355.133 125.253 355.943 128.475 355.943 132.144C355.943 135.813 355.111 139.056 353.447 141.872C351.826 144.645 349.586 146.779 346.727 148.272C343.911 149.765 340.754 150.512 337.255 150.512ZM337.255 141.04C339.346 141.04 341.117 140.272 342.567 138.736C344.061 137.2 344.807 135.003 344.807 132.144C344.807 129.285 344.082 127.088 342.631 125.552C341.223 124.016 339.474 123.248 337.383 123.248C335.25 123.248 333.479 124.016 332.071 125.552C330.663 127.045 329.959 129.243 329.959 132.144C329.959 135.003 330.642 137.2 332.007 138.736C333.415 140.272 335.165 141.04 337.255 141.04ZM378.005 150.512C374.507 150.512 371.349 149.765 368.533 148.272C365.76 146.779 363.563 144.645 361.941 141.872C360.363 139.099 359.573 135.856 359.573 132.144C359.573 128.475 360.384 125.253 362.005 122.48C363.627 119.664 365.845 117.509 368.661 116.016C371.477 114.523 374.635 113.776 378.133 113.776C381.632 113.776 384.789 114.523 387.605 116.016C390.421 117.509 392.64 119.664 394.261 122.48C395.883 125.253 396.693 128.475 396.693 132.144C396.693 135.813 395.861 139.056 394.197 141.872C392.576 144.645 390.336 146.779 387.477 148.272C384.661 149.765 381.504 150.512 378.005 150.512ZM378.005 141.04C380.096 141.04 381.867 140.272 383.317 138.736C384.811 137.2 385.557 135.003 385.557 132.144C385.557 129.285 384.832 127.088 383.381 125.552C381.973 124.016 380.224 123.248 378.133 123.248C376 123.248 374.229 124.016 372.821 125.552C371.413 127.045 370.709 129.243 370.709 132.144C370.709 135.003 371.392 137.2 372.757 138.736C374.165 140.272 375.915 141.04 378.005 141.04ZM422.403 140.72V150H416.835C412.867 150 409.774 149.04 407.555 147.12C405.337 145.157 404.227 141.979 404.227 137.584V123.376H399.875V114.288H404.227V105.584H415.171V114.288H422.339V123.376H415.171V137.712C415.171 138.779 415.427 139.547 415.939 140.016C416.451 140.485 417.305 140.72 418.499 140.72H422.403ZM443.027 150.512C439.913 150.512 437.139 149.979 434.707 148.912C432.275 147.845 430.355 146.395 428.947 144.56C427.539 142.683 426.75 140.592 426.579 138.288H437.395C437.523 139.525 438.099 140.528 439.123 141.296C440.147 142.064 441.406 142.448 442.899 142.448C444.265 142.448 445.31 142.192 446.035 141.68C446.803 141.125 447.187 140.421 447.187 139.568C447.187 138.544 446.654 137.797 445.587 137.328C444.521 136.816 442.793 136.261 440.403 135.664C437.843 135.067 435.71 134.448 434.003 133.808C432.297 133.125 430.825 132.08 429.587 130.672C428.35 129.221 427.731 127.28 427.731 124.848C427.731 122.8 428.286 120.944 429.395 119.28C430.547 117.573 432.211 116.229 434.387 115.248C436.606 114.267 439.23 113.776 442.259 113.776C446.739 113.776 450.259 114.885 452.819 117.104C455.422 119.323 456.915 122.267 457.299 125.936H447.187C447.017 124.699 446.462 123.717 445.523 122.992C444.627 122.267 443.433 121.904 441.939 121.904C440.659 121.904 439.678 122.16 438.995 122.672C438.313 123.141 437.971 123.803 437.971 124.656C437.971 125.68 438.505 126.448 439.571 126.96C440.681 127.472 442.387 127.984 444.691 128.496C447.337 129.179 449.491 129.861 451.155 130.544C452.819 131.184 454.27 132.251 455.507 133.744C456.787 135.195 457.449 137.157 457.491 139.632C457.491 141.723 456.894 143.6 455.699 145.264C454.547 146.885 452.862 148.165 450.643 149.104C448.467 150.043 445.929 150.512 443.027 150.512Z" fill="black"/>
</svg>
