<svg width="46" height="46" viewBox="0 0 46 46" fill="none" xmlns="http://www.w3.org/2000/svg">
<path d="M31.5673 45.8884H14.1112C6.32881 45.8884 0 39.5305 0 31.7124V14.176C0 6.35789 6.32881 0 14.1112 0H31.5673C39.3497 0 45.6785 6.35789 45.6785 14.176V31.7124C45.6785 39.5305 39.3497 45.8884 31.5673 45.8884ZM14.1112 5.11533C9.1366 5.11533 5.09194 9.17858 5.09194 14.176V31.7124C5.09194 36.7098 9.1366 40.773 14.1112 40.773H31.5673C36.5419 40.773 40.5865 36.7098 40.5865 31.7124V14.176C40.5865 9.17858 36.5419 5.11533 31.5673 5.11533H14.1112Z" fill="black"/>
<path d="M22.8414 34.6736C16.4043 34.6736 11.1679 29.4131 11.1679 22.9464C11.1679 16.4797 16.4043 11.2192 22.8414 11.2192C29.2786 11.2192 34.515 16.4797 34.515 22.9464C34.515 29.4131 29.2786 34.6736 22.8414 34.6736ZM22.8414 15.8221C18.9322 15.8221 15.7497 19.0192 15.7497 22.9464C15.7497 26.8736 18.9322 30.0707 22.8414 30.0707C26.7507 30.0707 29.9331 26.8736 29.9331 22.9464C29.9331 19.0147 26.7507 15.8221 22.8414 15.8221Z" fill="black"/>
<path d="M37.0791 10.5345C37.0791 11.6319 36.1943 12.5162 35.1064 12.5162C34.014 12.5162 33.1337 11.6274 33.1337 10.5345C33.1337 9.44157 34.0185 8.55273 35.1064 8.55273C36.1943 8.55273 37.0791 9.43703 37.0791 10.5345Z" fill="black"/>
</svg>
