<svg width="40" height="40" viewBox="0 0 40 40" fill="none" xmlns="http://www.w3.org/2000/svg">
<path d="M3.79687 7.77708C3.49734 8.13651 3.33331 8.58957 3.33331 9.05745V35.3333C3.33331 36.9902 4.67646 38.3333 6.33331 38.3333H33.6667C35.3235 38.3333 36.6666 36.9902 36.6666 35.3333V9.05745C36.6666 8.58957 36.5026 8.13651 36.2031 7.77708L31.7108 2.38631C31.3308 1.93033 30.7679 1.66668 30.1743 1.66668H9.82562C9.23206 1.66668 8.66916 1.93033 8.28918 2.38631L3.79687 7.77708Z" stroke="#14142B" stroke-width="2"/>
<path d="M3.33331 9.16666H36.6666" stroke="#14142B" stroke-width="2"/>
<path d="M26.6666 16.6667C26.6666 20.3486 23.6819 23.3333 20 23.3333C16.3181 23.3333 13.3333 20.3486 13.3333 16.6667" stroke="#14142B" stroke-width="2" stroke-linecap="round"/>
</svg>
