<svg width="53" height="43" viewBox="0 0 53 43" fill="none" xmlns="http://www.w3.org/2000/svg">
<path d="M43.5893 3.66795C43.5893 3.66795 40.8827 0.360525 36.1495 0.516061C30.5459 0.703619 25.3412 4.16201 25.9397 13.0276C25.9397 13.0276 17.498 15.6214 4.36392 3.01836C4.36392 3.01836 0.13854 9.97174 7.61003 16.5226C7.61003 16.5226 5.51094 17.1081 2.70913 15.5344C2.70913 15.5344 1.20849 21.4036 10.8244 25.8547C10.8244 25.8547 7.5783 26.7834 6.10939 25.8547C6.10939 25.8547 6.96625 32.0945 15.6029 33.5812C15.6029 33.5812 11.1644 38.0323 0.659912 37.9088C0.659912 37.9088 22.5031 49.1851 37.6456 34.6928C48.4584 24.3451 46.9578 10.5298 46.9578 10.5298C46.9578 10.5298 50.1404 9.54173 52.04 6.05132C52.04 6.05132 48.4267 7.19496 46.3457 7.00741C46.3457 7.00741 50.3263 4.50053 50.6346 1.53619C50.6301 1.53162 47.2343 3.97445 43.5893 3.66795Z" fill="black"/>
</svg>
